<?xml version="1.0" encoding="UTF-8" standalone="no"?>
<!DOCTYPE svg PUBLIC "-//W3C//DTD SVG 1.1//EN" "http://www.w3.org/Graphics/SVG/1.1/DTD/svg11.dtd">
<svg version="1.1" xmlns="http://www.w3.org/2000/svg" xmlns:xlink="http://www.w3.org/1999/xlink" preserveAspectRatio="xMidYMid meet" viewBox="0 0 640 640" width="640" height="640"><defs><path d="M482.86 247.67C482.86 132.98 389.55 39.67 274.87 39.67C160.18 39.67 66.87 132.98 66.87 247.67C66.87 362.36 160.18 455.67 274.87 455.67C320.68 455.67 362.95 440.6 397.35 415.4C406.44 424.48 451.86 469.91 533.62 551.67C560.77 524.52 575.85 509.43 578.87 506.42C578.87 506.42 442.6 370.15 442.6 370.15C467.79 335.74 482.86 293.48 482.86 247.67ZM130.87 247.67C130.87 168.26 195.46 103.67 274.87 103.67C354.27 103.67 418.87 168.26 418.87 247.67C418.87 327.07 354.27 391.67 274.87 391.67C195.46 391.67 130.87 327.07 130.87 247.67Z" id="b2phyHOXe9"></path></defs><g><g><g><use xlink:href="#b2phyHOXe9" opacity="1" fill="#ffffff" fill-opacity="1"></use><g><use xlink:href="#b2phyHOXe9" opacity="1" fill-opacity="0" stroke="#000000" stroke-width="1" stroke-opacity="0"></use></g></g></g></g></svg>